<svg width="50" height="50" viewBox="0 0 50 50" fill="none" xmlns="http://www.w3.org/2000/svg">
<circle cx="25" cy="25" r="25" fill="white"/>
<path d="M25 25C26.5823 25 28.129 24.5308 29.4446 23.6518C30.7602 22.7727 31.7855 21.5233 32.391 20.0615C32.9965 18.5997 33.155 16.9911 32.8463 15.4393C32.5376 13.8874 31.7757 12.462 30.6569 11.3431C29.538 10.2243 28.1126 9.4624 26.5607 9.15372C25.0089 8.84504 23.4003 9.00347 21.9385 9.60897C20.4767 10.2145 19.2273 11.2398 18.3482 12.5554C17.4692 13.871 17 15.4178 17 17C17.0021 19.1211 17.8457 21.1547 19.3455 22.6545C20.8453 24.1544 22.8789 24.9979 25 25ZM25 11.6667C26.0548 11.6667 27.086 11.9795 27.963 12.5655C28.8401 13.1515 29.5237 13.9845 29.9274 14.959C30.331 15.9336 30.4366 17.0059 30.2309 18.0405C30.0251 19.0751 29.5171 20.0254 28.7712 20.7712C28.0254 21.5171 27.075 22.0251 26.0405 22.2309C25.0059 22.4366 23.9336 22.331 22.959 21.9274C21.9845 21.5237 21.1515 20.8401 20.5655 19.963C19.9795 19.086 19.6667 18.0548 19.6667 17C19.6667 15.5855 20.2286 14.229 21.2288 13.2288C22.229 12.2286 23.5855 11.6667 25 11.6667Z" fill="#121212"/>
<path d="M25 27.6665C21.8185 27.67 18.7683 28.9354 16.5186 31.1851C14.2689 33.4348 13.0035 36.485 13 39.6665C13 40.0201 13.1405 40.3593 13.3905 40.6093C13.6406 40.8594 13.9797 40.9998 14.3333 40.9998C14.687 40.9998 15.0261 40.8594 15.2761 40.6093C15.5262 40.3593 15.6667 40.0201 15.6667 39.6665C15.6667 37.1912 16.65 34.8172 18.4003 33.0668C20.1507 31.3165 22.5246 30.3332 25 30.3332C27.4754 30.3332 29.8493 31.3165 31.5997 33.0668C33.35 34.8172 34.3333 37.1912 34.3333 39.6665C34.3333 40.0201 34.4738 40.3593 34.7239 40.6093C34.9739 40.8594 35.313 40.9998 35.6667 40.9998C36.0203 40.9998 36.3594 40.8594 36.6095 40.6093C36.8595 40.3593 37 40.0201 37 39.6665C36.9965 36.485 35.7311 33.4348 33.4814 31.1851C31.2317 28.9354 28.1815 27.67 25 27.6665Z" fill="#121212"/>
</svg>
